<mxfile host="app.diagrams.net" modified="2022-06-23T05:01:51.150Z" agent="5.0 (Macintosh; Intel Mac OS X 10_15_7) AppleWebKit/537.36 (KHTML, like Gecko) Chrome/101.0.4951.64 Safari/537.36" etag="qoUcJdgclGU9GBzzWOXT" version="20.0.3" type="github">
  <diagram id="EFYNGHQYf4nHP9qjL98A" name="Page-1">
    <mxGraphModel dx="946" dy="535" grid="1" gridSize="10" guides="1" tooltips="1" connect="1" arrows="1" fold="1" page="1" pageScale="1" pageWidth="827" pageHeight="1169" math="0" shadow="0">
      <root>
        <mxCell id="0" />
        <mxCell id="1" parent="0" />
        <mxCell id="bFfOgemtZS5Zrurw8KE3-3" value="" style="edgeStyle=orthogonalEdgeStyle;rounded=0;orthogonalLoop=1;jettySize=auto;html=1;" edge="1" parent="1" source="bFfOgemtZS5Zrurw8KE3-1" target="bFfOgemtZS5Zrurw8KE3-2">
          <mxGeometry relative="1" as="geometry" />
        </mxCell>
        <mxCell id="bFfOgemtZS5Zrurw8KE3-1" value="sdfghj" style="rounded=1;whiteSpace=wrap;html=1;" vertex="1" parent="1">
          <mxGeometry x="354" y="300" width="120" height="70" as="geometry" />
        </mxCell>
        <mxCell id="bFfOgemtZS5Zrurw8KE3-2" value="" style="rounded=1;whiteSpace=wrap;html=1;" vertex="1" parent="1">
          <mxGeometry x="354" y="455" width="120" height="60" as="geometry" />
        </mxCell>
      </root>
    </mxGraphModel>
  </diagram>
</mxfile>
